<svg xmlns="http://www.w3.org/2000/svg" width="338" height="129" fill="none" xmlns:v="https://vecta.io/nano"><g clip-path="url(#A)"><path d="M93.76 42.48c0 6.8-1.76 13.04-5.28 18.72s-8.64 10.32-15.36 13.92-14.72 5.72-24 6.36l-5.16 28.92c-2 11.12-7.44 16.68-16.32 16.68-4.88 0-9.4-1.44-13.56-4.32-4.08-2.88-7.36-7.28-9.84-13.2S.52 96.36.52 87.72c0-16.24 2.6-30 7.8-41.28C13.6 35.08 20.64 26.6 29.44 21c8.88-5.68 18.64-8.52 29.28-8.52 7.52 0 13.88 1.32 19.08 3.96 5.28 2.64 9.24 6.24 11.88 10.8 2.72 4.48 4.08 9.56 4.08 15.24zM51.28 69.12c16.4-2.08 24.6-10.6 24.6-25.56 0-5.28-1.76-9.56-5.28-12.84-3.44-3.36-8.8-5.04-16.08-5.04-8.24 0-15.44 2.6-21.6 7.8-6.08 5.2-10.8 12.44-14.16 21.72-3.28 9.2-4.92 19.72-4.92 31.56 0 4.96.48 9.36 1.44 13.2 1.04 3.84 2.32 6.84 3.84 9 1.6 2.08 3.12 3.12 4.56 3.12 2 0 3.52-2.76 4.56-8.28l3.96-22.68-4.08-.6c-2.4-.4-3.96-1.12-4.68-2.16-.72-1.12-1.08-2.52-1.08-4.2 0-1.76.48-3.16 1.44-4.2 1.04-1.04 2.44-1.56 4.2-1.56.8 0 1.4.04 1.8.12 1.92.32 3.4.52 4.44.6l4.44-25.08c.48-2.72 1.56-4.64 3.24-5.76 1.76-1.2 3.8-1.8 6.12-1.8 2.64 0 4.52.52 5.64 1.56 1.2.96 1.8 2.52 1.8 4.68 0 1.28-.08 2.32-.24 3.12l-3.96 23.28zm91.523 18.12c1.04 0 1.84.48 2.4 1.44.64.96.96 2.28.96 3.96 0 3.2-.76 5.68-2.28 7.44-3.44 4.24-7.2 7.72-11.28 10.44-4 2.72-8.56 4.08-13.68 4.08-7.04 0-12.28-3.2-15.72-9.6-3.361-6.4-5.041-14.68-5.041-24.84 0-9.76 1.24-20.88 3.721-33.36 2.56-12.48 6.28-23.2 11.16-32.16 4.96-8.96 10.84-13.44 17.64-13.44 3.84 0 6.84 1.8 9 5.4 2.24 3.52 3.36 8.6 3.36 15.24 0 9.52-2.64 20.56-7.92 33.12s-12.44 25-21.48 37.32c.56 3.28 1.48 5.64 2.76 7.08 1.28 1.36 2.96 2.04 5.04 2.04 3.28 0 6.16-.92 8.64-2.76 2.48-1.92 5.64-5.16 9.48-9.72.96-1.12 2.04-1.68 3.24-1.68zm-14.76-74.16c-1.84 0-3.92 3.32-6.24 9.96s-4.36 14.88-6.12 24.72-2.72 19.28-2.88 28.32c5.68-9.36 10.2-18.72 13.56-28.08 3.36-9.44 5.04-18.04 5.04-25.8 0-6.08-1.12-9.12-3.36-9.12zm24.14 37.08c-3.36 0-5.88-.76-7.56-2.28-1.68-1.6-2.52-3.8-2.52-6.6s1.08-5.12 3.24-6.96c2.24-1.92 5-2.88 8.28-2.88 2.96 0 5.36.72 7.2 2.16s2.76 3.48 2.76 6.12c0 3.2-1.04 5.76-3.12 7.68-2.08 1.84-4.84 2.76-8.28 2.76zm-.96 64.44c-5.2 0-9-1.84-11.4-5.52-2.32-3.68-3.48-8.56-3.48-14.64 0-3.6.44-8.2 1.32-13.8.96-5.68 2.16-10.96 3.6-15.84.72-2.56 1.68-4.32 2.88-5.28s3.12-1.44 5.76-1.44c4.08 0 6.12 1.36 6.12 4.08 0 2-.76 6.64-2.28 13.92-1.92 8.8-2.88 14.76-2.88 17.88 0 2.4.32 4.24.96 5.52s1.72 1.92 3.24 1.92c1.44 0 3.24-1 5.4-3s5.04-5.16 8.64-9.48c.96-1.12 2.04-1.68 3.24-1.68 1.04 0 1.84.48 2.4 1.44.64.96.96 2.28.96 3.96 0 3.2-.76 5.68-2.28 7.44-7.92 9.68-15.32 14.52-22.2 14.52zm23.291 0c-3.04 0-5.2-1.6-6.48-4.8-1.2-3.2-1.8-8.32-1.8-15.36 0-10.4 1.48-20.28 4.44-29.64.72-2.32 1.88-4 3.48-5.04 1.68-1.12 4-1.68 6.96-1.68 1.6 0 2.72.2 3.36.6s.96 1.16.96 2.28c0 1.28-.6 4.16-1.8 8.64-.8 3.2-1.44 6-1.92 8.4s-.88 5.36-1.2 8.88c2.64-6.88 5.6-12.48 8.88-16.8s6.48-7.4 9.6-9.24c3.2-1.84 6.12-2.76 8.76-2.76 5.2 0 7.8 2.6 7.8 7.8 0 3.12-.88 8.76-2.64 16.92-1.52 6.96-2.28 11.56-2.28 13.8 0 3.2 1.16 4.8 3.48 4.8 1.6 0 3.48-.96 5.64-2.88 2.24-2 5.2-5.2 8.88-9.6.96-1.12 2.04-1.68 3.24-1.68 1.04 0 1.84.48 2.4 1.44.64.96.96 2.28.96 3.96 0 3.2-.76 5.68-2.28 7.44-3.44 4.24-7.16 7.72-11.16 10.44-3.92 2.72-8.4 4.08-13.44 4.08-4.08 0-7.16-1.16-9.24-3.48-2.08-2.4-3.12-5.84-3.12-10.32 0-2.24.56-6.24 1.68-12 1.04-5.04 1.56-8.52 1.56-10.44 0-1.28-.44-1.92-1.32-1.92-1.04 0-2.52 1.36-4.44 4.08-1.84 2.64-3.76 6.16-5.76 10.56-1.92 4.4-3.48 9.04-4.68 13.92-.88 3.76-1.92 6.32-3.12 7.68-1.12 1.28-2.92 1.92-5.4 1.92zm120.372-27.36c1.04 0 1.84.48 2.4 1.44.64.96.96 2.28.96 3.96 0 3.2-.76 5.68-2.28 7.44-3.6 4.4-7.24 7.92-10.92 10.56s-8.04 3.96-13.08 3.96c-6.16 0-11.12-1.76-14.88-5.28s-5.64-8.2-5.64-14.04c0-3.12 1.6-5.36 4.8-6.72 3.52-1.52 6.04-3.12 7.56-4.8 1.52-1.76 2.28-3.88 2.28-6.36 0-1.44-.32-2.52-.96-3.24-.56-.72-1.28-1.08-2.16-1.08-2.16 0-4.56 1.56-7.2 4.68-2.56 3.12-4.96 7.16-7.2 12.12a84.69 84.69 0 0 0-5.28 15.12c-.88 3.76-1.92 6.32-3.12 7.68-1.12 1.28-2.92 1.92-5.4 1.92s-4.32-.88-5.52-2.64c-1.12-1.84-1.88-4.64-2.28-8.4s-.6-9.28-.6-16.56c0-12.32 1.24-25.16 3.72-38.52 2.56-13.36 6.28-24.56 11.16-33.6 4.96-9.12 10.88-13.68 17.76-13.68 3.68 0 6.64 1.6 8.88 4.8 2.32 3.12 3.48 7.2 3.48 12.24 0 8.08-2.36 16.48-7.08 25.2-4.72 8.64-12.4 18.76-23.04 30.36-.24 4.16-.36 8.44-.36 12.84 3.84-10 8.24-17.24 13.2-21.72 4.96-4.56 9.6-6.84 13.92-6.84 4 0 7.2 1.36 9.6 4.08 2.48 2.72 3.72 6.08 3.72 10.08 0 4.4-1.12 8.44-3.36 12.12s-6.08 6.96-11.52 9.84c.32 2.16 1.28 3.92 2.88 5.28 1.68 1.28 3.68 1.92 6 1.92 2.48 0 4.88-.96 7.2-2.88s5.36-5.12 9.12-9.6c.96-1.12 2.04-1.68 3.24-1.68zm-38.4-74.16c-1.44 0-3.04 2.08-4.8 6.24-1.76 4.08-3.48 9.64-5.16 16.68-1.6 6.96-2.92 14.56-3.96 22.8 4.96-5.84 9.04-12.2 12.24-19.08 3.28-6.88 4.92-13.12 4.92-18.72 0-2.56-.28-4.52-.84-5.88s-1.36-2.04-2.4-2.04zm52.367 101.52c-4.72 0-8.76-1.16-12.12-3.48-3.28-2.4-5.76-5.52-7.44-9.36s-2.521-7.96-2.521-12.36c0-6.08 1.121-11.48 3.361-16.2 2.32-4.8 5.44-8.52 9.36-11.16 3.92-2.72 8.32-4.08 13.2-4.08 4.72 0 8.76 1.2 12.12 3.6 3.36 2.32 5.88 5.4 7.56 9.24s2.52 7.96 2.52 12.36c0 6.08-1.16 11.52-3.48 16.32-2.32 4.72-5.48 8.44-9.48 11.16-3.92 2.64-8.28 3.96-13.08 3.96zm1.32-12.96c2.72 0 5-1.48 6.84-4.44 1.92-2.96 2.88-7.28 2.88-12.96 0-4.4-.8-7.72-2.4-9.96s-3.52-3.36-5.76-3.36c-2.88 0-5.28 1.48-7.2 4.44-1.84 2.88-2.76 7.2-2.76 12.96 0 4.56.8 7.92 2.4 10.08s3.6 3.24 6 3.24z" fill="#fff"/></g><defs><clipPath id="A"><path fill="#fff" d="M0 0h338v129H0z"/></clipPath></defs></svg>